<?xml version="1.0" encoding="utf-8"?>
<!-- Generator: Adobe Illustrator 15.0.2, SVG Export Plug-In  -->
<!DOCTYPE svg PUBLIC "-//W3C//DTD SVG 1.1//EN" "http://www.w3.org/Graphics/SVG/1.1/DTD/svg11.dtd" [
	<!ENTITY ns_flows "http://ns.adobe.com/Flows/1.0/">
]>
<svg version="1.1"
	 xmlns="http://www.w3.org/2000/svg" xmlns:xlink="http://www.w3.org/1999/xlink" xmlns:a="http://ns.adobe.com/AdobeSVGViewerExtensions/3.0/"
	 x="0px" y="0px" width="175px" height="222px" viewBox="-0.408 -0.217 175 222" enable-background="new -0.408 -0.217 175 222"
	 xml:space="preserve">
<defs>
</defs>
<g>
	<g opacity="0.5">
		<path fill="#1A171B" d="M22.37,3.24c0,0,0.685,12.694,17.789,31.791c0,0,3.444-2.659,11.162-3.656
			C51.321,31.374,40.733,28.02,22.37,3.24z"/>
	</g>
	<g>
		<path fill="#BC2F1C" d="M21.825,2.695c0,0,0.685,12.694,17.789,31.791c0,0,3.444-2.659,11.162-3.656
			C50.776,30.83,40.188,27.476,21.825,2.695z"/>
	</g>
</g>
<g>
	<g opacity="0.5">
		<path fill="#1A171B" d="M72.933,25.162c40.315-0.141,44.163-0.442,46.831,2.939c6.788,8.604,18.719,7.472,18.719,7.472
			c7.546-0.227,25.736,0.755,25.736,0.755c0.53,8.603,10.116,14.643,10.116,14.643c2.038,1.435-0.454,2.339-0.454,2.339
			c-5.508,3.17-8.227,3.775-8.227,3.775c-5.51,1.887-4.919,5.12-5.977,3.987c-1.057-1.132-4.666-2.1-4.666-2.1v-1.432
			c2.237-4.112-3.203-7.343-4.302-8.001c-5.271-3.157-11.562,1.269-19.022,2.716c-7.459,1.447-15.484-4.843-18.793,0.076
			s8.832,9.509,8.832,9.509c17.963,7.398,28.831,14.644,28.831,14.644c1.962-0.452,0.981-8.68,0.981-8.68
			c0-1.51,0.756-2.34,0.756-2.34c0.451-0.527,4.83,8.077,4.83,8.077c0.074,1.963,0.227,8.982,0.227,8.982
			c1.434,1.812,0.905,2.264,0.905,2.264c-1.734,3.17-3.698,3.622-3.698,3.622c-24.229-23.624-44.607-17.321-44.607-17.321
			c-1.371-4.882-13.836-5.003-16.359-4.528c-3.955,0.743-4.475-1.02-4.475-1.02C113.637,46.277,55.22,44.17,74.31,63.262
			c0.947,0.944,2.643,1.809-0.3,0.979c-3.657-1.032-8.176-5.073-15.008-10.704c-8.843-7.288-11.939,5.873-4.692,14.478
			c7.715,9.164,30.505,28.317,30.505,28.317c6.113,5.21,1.59,2.931-1.448,0.59c-20.498-15.786-23.233-9.193-23.233-9.193
			c-15.625-8.606-26.493,0.905-26.493,0.905c-9.51-10.415-23.549-3.625-23.549-3.625c5.66-7.697,13.043-6.351,15.17-6.79
			c4.795-0.993,1.358-4.529,1.358-4.529c-3.397-3.624-1.812-7.7-1.812-7.7c7.925,11.095,11.06,3.165,11.548,2.038
			c2.662-6.139-0.838-3.308-3.787-7.484C16.123,37.238,64.21,34.516,64.21,34.516c-0.226-1.812-0.679-3.17-0.679-3.17
			C41.339,14.137,38.088-0.413,39.139,0.594C62.992,23.48,71.094,25.169,72.933,25.162z M95.865,31.415
			c-5.434-2.207-5.773-1.526-5.773-1.526l-4.299,4.019c0,0-1.669,1.425,1.582,1.076c3.247-0.35,13.584,3.736,13.584,3.736
			c3.397,1.018,3.566-1.358,3.566-1.358c-0.169-3.228-3.734-4.076-3.734-4.076L95.865,31.415z"/>
	</g>
	<g>
		<path fill="#BC2F1C" d="M72.388,24.618c40.315-0.141,44.163-0.442,46.831,2.939c6.788,8.604,18.719,7.472,18.719,7.472
			c7.546-0.227,25.736,0.755,25.736,0.755c0.53,8.603,10.116,14.643,10.116,14.643c2.038,1.435-0.454,2.339-0.454,2.339
			c-5.508,3.17-8.227,3.775-8.227,3.775c-5.51,1.887-4.919,5.12-5.977,3.987c-1.057-1.132-4.666-2.1-4.666-2.1v-1.432
			c2.237-4.112-3.203-7.343-4.302-8.001c-5.271-3.157-11.562,1.269-19.022,2.716c-7.459,1.447-15.484-4.843-18.793,0.076
			s8.832,9.509,8.832,9.509c17.963,7.398,28.831,14.644,28.831,14.644c1.962-0.452,0.981-8.68,0.981-8.68
			c0-1.51,0.756-2.34,0.756-2.34c0.451-0.527,4.83,8.077,4.83,8.077c0.074,1.963,0.227,8.982,0.227,8.982
			c1.434,1.812,0.905,2.264,0.905,2.264c-1.734,3.17-3.698,3.622-3.698,3.622c-24.229-23.624-44.607-17.321-44.607-17.321
			c-1.371-4.882-13.836-5.003-16.359-4.528c-3.955,0.743-4.475-1.02-4.475-1.02c24.521-19.261-33.897-21.368-14.807-2.275
			c0.947,0.944,2.643,1.809-0.3,0.979c-3.657-1.032-8.176-5.073-15.008-10.704c-8.843-7.288-11.939,5.873-4.692,14.478
			c7.715,9.164,30.506,28.317,30.506,28.317c6.113,5.21,1.59,2.931-1.448,0.59C62.325,80.592,59.59,87.185,59.59,87.185
			c-15.625-8.606-26.493,0.905-26.493,0.905c-9.51-10.415-23.549-3.625-23.549-3.625c5.66-7.697,13.043-6.351,15.17-6.79
			c4.795-0.993,1.358-4.529,1.358-4.529c-3.397-3.624-1.812-7.7-1.812-7.7c7.925,11.095,11.06,3.165,11.548,2.038
			c2.662-6.139-0.838-3.308-3.787-7.484c-16.448-23.305,31.64-26.027,31.64-26.027c-0.226-1.812-0.679-3.17-0.679-3.17
			C40.794,13.593,37.543-0.958,38.595,0.049C62.447,22.936,70.549,24.625,72.388,24.618z M95.321,30.871
			c-5.434-2.207-5.773-1.526-5.773-1.526l-4.299,4.019c0,0-1.669,1.425,1.582,1.076c3.247-0.35,13.584,3.736,13.584,3.736
			c3.397,1.018,3.566-1.358,3.566-1.358c-0.169-3.228-3.734-4.076-3.734-4.076L95.321,30.871z"/>
	</g>
</g>
<g>
	<g opacity="0.5">
		<path fill="#1A171B" d="M0.731,99.354c0,0-0.449,0.748,0.046,0.929c1.226,0.452,4.616-5.252,14.013-7.063
			c0,0,4.699-0.112,5.208,3.34c0,0,1.529,2.943-5.833,9.397c0,0-42.269,41.786,24.131,70.822c0,0,15.725,41.606,65.541,32.096
			c0,0,27.398-4.078,43.928-30.346c0,0,1.359-3.021,6.037-5.282c0,0-7.962-10.568,4.266-41.022
			c0.711-1.781-11.393,29.444-31.25,42.682c0,0,4.327-1.793,7.538-3.186c4.084-1.762,15.779-8.976,6.841,8.166
			c0,0-19.585,33.966-54.684,20.039c0,0-15.25,4.895-23.349-4.078c-0.93-1.028-1.382-3.178,2.037-2.376
			c4.89,1.146,14.547,0.633,20.695-2.274c0,0-33.504,3.584-50.317-26.474c0,0-0.34,3.737,2.208,8.493c0,0-10.627-1.652-16.57-13.371
			c-5.944-11.716-2.718-19.188,3.397-25.301c6.114-6.114,13.513-11.257,16.739-20.429c0,0,0.552-2.666-0.863-0.29
			c0,0-7.364,16.901-21.341,16.397c-7.703-0.277-1.637-12.393,1.647-16.468c3.281-4.078,6.504-7.988,18.731-11.006
			c0,0,8.605,10.565,26.945,15.548c0,0,7.247,1.359,7.927,4.754c0,0,6.34,7.701,3.396,21.061c0,0-0.396,0.34,0.564,0.963
			c0,0,6.455-8.604,5.945-24.738c0,0,4.303-0.057,6.793-0.904c0,0,18.398,15.396-2.773,31.697c0,0,28.077-13.925,12.567-41.208
			c0,0-0.829-1.512-0.756-2.417l-0.528-0.68c0,0-4.303,3.625-7.851,0.68c0,0-4.046,3.896-7.612-1.027
			c0,0-19.359-15.793-44.151-13.077c0,0-5.605,0.681-7.813-1.187C32.182,92.213,15.133,76.095,0.731,99.354z"/>
	</g>
	<g>
		<path fill="#BC2F1C" d="M0.187,98.809c0,0-0.449,0.748,0.046,0.929c1.226,0.452,4.616-5.252,14.013-7.063
			c0,0,4.699-0.112,5.208,3.34c0,0,1.529,2.943-5.833,9.397c0,0-42.269,41.786,24.131,70.822c0,0,15.725,41.606,65.541,32.096
			c0,0,27.398-4.078,43.928-30.346c0,0,1.359-3.021,6.037-5.282c0,0-7.962-10.568,4.266-41.022
			c0.711-1.781-11.393,29.444-31.25,42.682c0,0,4.327-1.793,7.538-3.186c4.084-1.762,15.779-8.976,6.841,8.166
			c0,0-19.585,33.966-54.684,20.039c0,0-15.25,4.895-23.35-4.078c-0.93-1.028-1.382-3.178,2.037-2.376
			c4.89,1.146,14.547,0.633,20.696-2.274c0,0-33.504,3.584-50.317-26.474c0,0-0.34,3.737,2.208,8.493c0,0-10.627-1.652-16.57-13.371
			c-5.944-11.716-2.718-19.188,3.397-25.301c6.114-6.114,13.513-11.257,16.739-20.429c0,0,0.552-2.667-0.863-0.29
			c0,0-7.364,16.901-21.341,16.397c-7.703-0.277-1.637-12.393,1.647-16.468c3.281-4.078,6.504-7.989,18.731-11.006
			c0,0,8.605,10.566,26.945,15.548c0,0,7.247,1.359,7.927,4.754c0,0,6.34,7.701,3.396,21.061c0,0-0.396,0.34,0.564,0.963
			c0,0,6.455-8.604,5.945-24.738c0,0,4.303-0.057,6.793-0.904c0,0,18.398,15.396-2.773,31.697c0,0,28.077-13.925,12.567-41.208
			c0,0-0.829-1.512-0.756-2.417l-0.528-0.68c0,0-4.303,3.625-7.851,0.68c0,0-4.046,3.896-7.612-1.027
			c0,0-19.359-15.793-44.152-13.077c0,0-5.605,0.681-7.813-1.187C31.637,91.669,14.589,75.551,0.187,98.809z"/>
	</g>
</g>
<g>
	<g opacity="0.5">
		<path fill="#1A171B" d="M26.394,176.943c0,0-7.471,33.061,12.229,44.836c0,0-4.303-4.528-4.981-8.151
			c0,0-5.662-11.096,2.037-12.68c0,0,3.85,0.68,6.115,5.433c0,0,6.566,12.455,15.85,12.909c0,0-7.247-4.075-8.377-7.021
			c0,0-5.66-7.699,2.039-4.304c0,0,12.906,5.663,17.434,6.57c0,0,2.945,0.281,0.057-1.076c0,0-35.084-9.675-41.197-36.338
			C27.598,177.121,27.047,175.869,26.394,176.943z"/>
	</g>
	<g>
		<path fill="#BC2F1C" d="M25.85,176.399c0,0-7.471,33.061,12.229,44.836c0,0-4.303-4.528-4.981-8.151c0,0-5.662-11.096,2.037-12.68
			c0,0,3.85,0.68,6.115,5.433c0,0,6.566,12.455,15.85,12.909c0,0-7.247-4.075-8.377-7.021c0,0-5.66-7.699,2.039-4.304
			c0,0,12.906,5.663,17.434,6.57c0,0,2.945,0.281,0.057-1.076c0,0-35.084-9.675-41.197-36.338
			C27.053,176.577,26.502,175.325,25.85,176.399z"/>
	</g>
</g>
<g>
	<g opacity="0.5">
		<path fill="#1A171B" d="M165.654,211.701c0,0-21.337,10.969-66.574,3.851c-0.211-0.112-0.771-0.68,0.736-0.68
			c0,0,30.521,1.479,49.711-31.468c0,0,0.904-1.492,1.528-5.943l3.228,5.604c0,0-2.039,1.113-3.907,3.736
			c0,0-11.153,15.942-1.644,14.476c9.512-1.477,1.266-1.359,9.36-2.757c0,0-3.64,4.925-15.357,7.641c0,0-11.039,2.551-2.209,5.436
			C140.526,211.595,152.572,215.039,165.654,211.701z"/>
	</g>
	<g>
		<path fill="#BC2F1C" d="M165.11,211.157c0,0-21.337,10.969-66.574,3.851c-0.211-0.112-0.771-0.68,0.736-0.68
			c0,0,30.521,1.479,49.711-31.468c0,0,0.904-1.492,1.528-5.943l3.228,5.604c0,0-2.039,1.113-3.907,3.736
			c0,0-11.153,15.942-1.644,14.476c9.512-1.477,1.266-1.359,9.36-2.757c0,0-3.64,4.925-15.357,7.641c0,0-11.039,2.551-2.209,5.436
			C139.982,211.051,152.028,214.495,165.11,211.157z"/>
	</g>
</g>
</svg>
